<?xml version="1.0" encoding="UTF-8"?>
<svg xmlns="http://www.w3.org/2000/svg" xmlns:xlink="http://www.w3.org/1999/xlink" width="3000" height="3000" viewBox="0 0 3000 3000">
<defs>
<clipPath id="clip-0">

</clipPath>
<clipPath id="clip-1">
<path clip-rule="nonzero" d="M 1270.25 1557.269531 Z M 1949.519531 1002.589844 L 1764.191406 1140.710938 C 1730.738281 1116.710938 1693.890625 1100.710938 1653.628906 1092.710938 C 1630.660156 1088.730469 1609.089844 1086.730469 1588.929688 1086.730469 C 1562.539062 1086.730469 1538.558594 1090.140625 1516.988281 1096.96875 C 1411.691406 1130.941406 1343.839844 1195.789062 1313.429688 1291.53125 C 1304.539062 1290.570312 1295.988281 1290.089844 1287.769531 1290.089844 C 1224.460938 1290.089844 1181.070312 1318.550781 1157.589844 1375.449219 C 1118.140625 1356.160156 1079.890625 1346.511719 1042.859375 1346.511719 C 995.789062 1346.511719 950.667969 1362.089844 907.488281 1393.238281 C 863.527344 1432.648438 838.101562 1468.988281 831.207031 1502.289062 C 815.394531 1551.109375 816.425781 1600.589844 834.308594 1650.730469 C 855.039062 1701.019531 885.394531 1738.320312 925.375 1762.621094 C 945.125 1774.96875 967.117188 1784.269531 991.351562 1790.53125 C 1009.5 1786.320312 1028.351562 1780.601562 1047.890625 1773.371094 C 1147.851562 1736 1260.351562 1664.839844 1385.390625 1559.910156 C 1417.289062 1534.328125 1472.039062 1483.898438 1549.621094 1408.609375 C 1605.03125 1354.660156 1684.230469 1271.578125 1787.230469 1159.359375 Z M 1949.519531 1002.589844 "/>
</clipPath>
<clipPath id="clip-2">
<path clip-rule="nonzero" d="M 1270.25 1557.269531 Z M 1949.519531 1002.589844 L 1764.191406 1140.710938 C 1730.738281 1116.710938 1693.890625 1100.710938 1653.628906 1092.710938 C 1630.660156 1088.730469 1609.089844 1086.730469 1588.929688 1086.730469 C 1562.539062 1086.730469 1538.558594 1090.140625 1516.988281 1096.96875 C 1411.691406 1130.941406 1343.839844 1195.789062 1313.429688 1291.53125 C 1304.539062 1290.570312 1295.988281 1290.089844 1287.769531 1290.089844 C 1224.460938 1290.089844 1181.070312 1318.550781 1157.589844 1375.449219 C 1118.140625 1356.160156 1079.890625 1346.511719 1042.859375 1346.511719 C 995.789062 1346.511719 950.667969 1362.089844 907.488281 1393.238281 C 863.527344 1432.648438 838.101562 1468.988281 831.207031 1502.289062 C 815.394531 1551.109375 816.425781 1600.589844 834.308594 1650.730469 C 855.039062 1701.019531 885.394531 1738.320312 925.375 1762.621094 C 945.125 1774.96875 967.117188 1784.269531 991.351562 1790.53125 C 1009.5 1786.320312 1028.351562 1780.601562 1047.890625 1773.371094 C 1147.851562 1736 1260.351562 1664.839844 1385.390625 1559.910156 C 1417.289062 1534.328125 1472.039062 1483.898438 1549.621094 1408.609375 C 1605.03125 1354.660156 1684.230469 1271.578125 1787.230469 1159.359375 Z M 1949.519531 1002.589844 "/>
</clipPath>
<linearGradient id="linear-pattern-0" gradientUnits="userSpaceOnUse" x1="41.745035" y1="1703.150702" x2="852.744297" y2="258.847394" gradientTransform="matrix(0.75, 0, 0, 0.75, 1095, 687.75)">
<stop offset="0" stop-color="rgb(11.729431%, 58.633423%, 86.680603%)" stop-opacity="1"/>
<stop offset="0.015625" stop-color="rgb(11.903381%, 58.805847%, 86.810303%)" stop-opacity="1"/>
<stop offset="0.03125" stop-color="rgb(12.254333%, 59.152222%, 87.068176%)" stop-opacity="1"/>
<stop offset="0.046875" stop-color="rgb(12.605286%, 59.498596%, 87.327576%)" stop-opacity="1"/>
<stop offset="0.0625" stop-color="rgb(12.956238%, 59.843445%, 87.585449%)" stop-opacity="1"/>
<stop offset="0.078125" stop-color="rgb(13.30719%, 60.189819%, 87.843323%)" stop-opacity="1"/>
<stop offset="0.09375" stop-color="rgb(13.658142%, 60.536194%, 88.102722%)" stop-opacity="1"/>
<stop offset="0.109375" stop-color="rgb(14.009094%, 60.882568%, 88.360596%)" stop-opacity="1"/>
<stop offset="0.125" stop-color="rgb(14.360046%, 61.228943%, 88.618469%)" stop-opacity="1"/>
<stop offset="0.140625" stop-color="rgb(14.709473%, 61.575317%, 88.877869%)" stop-opacity="1"/>
<stop offset="0.15625" stop-color="rgb(15.060425%, 61.920166%, 89.135742%)" stop-opacity="1"/>
<stop offset="0.171875" stop-color="rgb(15.411377%, 62.266541%, 89.395142%)" stop-opacity="1"/>
<stop offset="0.1875" stop-color="rgb(15.762329%, 62.612915%, 89.653015%)" stop-opacity="1"/>
<stop offset="0.203125" stop-color="rgb(16.113281%, 62.95929%, 89.910889%)" stop-opacity="1"/>
<stop offset="0.21875" stop-color="rgb(16.464233%, 63.305664%, 90.170288%)" stop-opacity="1"/>
<stop offset="0.234375" stop-color="rgb(16.815186%, 63.652039%, 90.428162%)" stop-opacity="1"/>
<stop offset="0.25" stop-color="rgb(17.164612%, 63.998413%, 90.686035%)" stop-opacity="1"/>
<stop offset="0.265625" stop-color="rgb(17.515564%, 64.343262%, 90.945435%)" stop-opacity="1"/>
<stop offset="0.28125" stop-color="rgb(17.866516%, 64.689636%, 91.203308%)" stop-opacity="1"/>
<stop offset="0.296875" stop-color="rgb(18.217468%, 65.036011%, 91.462708%)" stop-opacity="1"/>
<stop offset="0.3125" stop-color="rgb(18.56842%, 65.382385%, 91.720581%)" stop-opacity="1"/>
<stop offset="0.328125" stop-color="rgb(18.919373%, 65.72876%, 91.978455%)" stop-opacity="1"/>
<stop offset="0.34375" stop-color="rgb(19.270325%, 66.075134%, 92.237854%)" stop-opacity="1"/>
<stop offset="0.359375" stop-color="rgb(19.621277%, 66.419983%, 92.495728%)" stop-opacity="1"/>
<stop offset="0.375" stop-color="rgb(19.970703%, 66.766357%, 92.753601%)" stop-opacity="1"/>
<stop offset="0.390625" stop-color="rgb(20.321655%, 67.112732%, 93.013%)" stop-opacity="1"/>
<stop offset="0.40625" stop-color="rgb(20.672607%, 67.459106%, 93.270874%)" stop-opacity="1"/>
<stop offset="0.421875" stop-color="rgb(21.02356%, 67.805481%, 93.530273%)" stop-opacity="1"/>
<stop offset="0.4375" stop-color="rgb(21.374512%, 68.151855%, 93.788147%)" stop-opacity="1"/>
<stop offset="0.44697" stop-color="rgb(21.725464%, 68.496704%, 94.046021%)" stop-opacity="1"/>
<stop offset="0.453125" stop-color="rgb(21.90094%, 68.670654%, 94.17572%)" stop-opacity="1"/>
<stop offset="0.46875" stop-color="rgb(22.076416%, 68.843079%, 94.30542%)" stop-opacity="1"/>
<stop offset="0.484375" stop-color="rgb(22.425842%, 69.189453%, 94.563293%)" stop-opacity="1"/>
<stop offset="0.5" stop-color="rgb(22.776794%, 69.535828%, 94.821167%)" stop-opacity="1"/>
<stop offset="0.515625" stop-color="rgb(23.127747%, 69.882202%, 95.080566%)" stop-opacity="1"/>
<stop offset="0.53125" stop-color="rgb(23.478699%, 70.228577%, 95.33844%)" stop-opacity="1"/>
<stop offset="0.546875" stop-color="rgb(23.829651%, 70.574951%, 95.597839%)" stop-opacity="1"/>
<stop offset="0.55303" stop-color="rgb(24.180603%, 70.9198%, 95.855713%)" stop-opacity="1"/>
<stop offset="0.5625" stop-color="rgb(24.356079%, 71.09375%, 95.985413%)" stop-opacity="1"/>
<stop offset="0.578125" stop-color="rgb(24.531555%, 71.266174%, 96.113586%)" stop-opacity="1"/>
<stop offset="0.59375" stop-color="rgb(24.880981%, 71.612549%, 96.372986%)" stop-opacity="1"/>
<stop offset="0.609375" stop-color="rgb(25.231934%, 71.958923%, 96.630859%)" stop-opacity="1"/>
<stop offset="0.625" stop-color="rgb(25.582886%, 72.305298%, 96.888733%)" stop-opacity="1"/>
<stop offset="0.640625" stop-color="rgb(25.933838%, 72.651672%, 97.148132%)" stop-opacity="1"/>
<stop offset="0.65625" stop-color="rgb(26.28479%, 72.996521%, 97.406006%)" stop-opacity="1"/>
<stop offset="0.671875" stop-color="rgb(26.635742%, 73.342896%, 97.665405%)" stop-opacity="1"/>
<stop offset="0.6875" stop-color="rgb(26.986694%, 73.68927%, 97.923279%)" stop-opacity="1"/>
<stop offset="0.703125" stop-color="rgb(27.337646%, 74.035645%, 98.181152%)" stop-opacity="1"/>
<stop offset="0.71875" stop-color="rgb(27.687073%, 74.382019%, 98.440552%)" stop-opacity="1"/>
<stop offset="0.734375" stop-color="rgb(28.038025%, 74.728394%, 98.698425%)" stop-opacity="1"/>
<stop offset="0.75" stop-color="rgb(28.388977%, 75.073242%, 98.956299%)" stop-opacity="1"/>
<stop offset="0.765625" stop-color="rgb(28.739929%, 75.419617%, 99.215698%)" stop-opacity="1"/>
<stop offset="0.78125" stop-color="rgb(29.090881%, 75.765991%, 99.473572%)" stop-opacity="1"/>
<stop offset="0.796875" stop-color="rgb(29.441833%, 76.112366%, 99.732971%)" stop-opacity="1"/>
<stop offset="0.8125" stop-color="rgb(29.710388%, 76.377869%, 99.931335%)" stop-opacity="1"/>
<stop offset="0.875" stop-color="rgb(29.803467%, 76.469421%, 100%)" stop-opacity="1"/>
<stop offset="1" stop-color="rgb(29.803467%, 76.469421%, 100%)" stop-opacity="1"/>
</linearGradient>
</defs>

<g clip-path="url(#clip-0)">
<g clip-path="url(#clip-1)">
<g clip-path="url(#clip-2)">
<path fill-rule="nonzero" fill="url(#linear-pattern-0)" d="M 815.394531 1002.589844 L 815.394531 1790.53125 L 1949.519531 1790.53125 L 1949.519531 1002.589844 Z M 815.394531 1002.589844 "/>
</g>
</g>
</g>
<path fill-rule="nonzero" fill="rgb(0%, 43.920898%, 69.726562%)" fill-opacity="1" d="M 1980.710938 1043.441406 L 1844.449219 1229.398438 C 1705.601562 1407.910156 1624.25 1524.058594 1600.398438 1577.859375 C 1582.160156 1607.660156 1565.089844 1650.570312 1549.191406 1706.570312 C 1541.941406 1737 1540.53125 1765.730469 1544.960938 1792.78125 L 2001.429688 1792.421875 C 2052.820312 1777.601562 2088.410156 1754.929688 2108.199219 1724.390625 C 2130.371094 1696.730469 2142.550781 1659.761719 2144.738281 1613.480469 C 2144.050781 1593.160156 2140.808594 1574.210938 2135.011719 1556.640625 C 2123.121094 1526.839844 2111.890625 1507.03125 2101.320312 1497.199219 C 2035.609375 1430.890625 1961.109375 1416.769531 1877.800781 1454.828125 C 1885.730469 1418.800781 1889.050781 1397.050781 1887.769531 1389.578125 C 1888.199219 1374.910156 1887.441406 1360.128906 1885.480469 1345.238281 C 1881.558594 1315.460938 1872.878906 1285.230469 1859.429688 1254.558594 C 1898.960938 1189.011719 1939.390625 1118.640625 1980.710938 1043.441406 Z M 1980.710938 1043.441406 "/>
<path fill-rule="nonzero" fill="rgb(0%, 49.021912%, 73.242188%)" fill-opacity="1" d="M 2024.378906 746.738281 C 2021.28125 746.738281 2018.21875 748.171875 2016.230469 750.871094 L 2000.300781 772.558594 L 1950.660156 756.78125 L 1905.589844 779.28125 L 1905.589844 779.289062 L 2070.730469 857 L 2070.738281 857 L 2073.328125 858.21875 L 2073.339844 858.230469 C 2072.789062 859.011719 2072.25 859.800781 2071.699219 860.578125 L 2071.648438 860.558594 L 2071.640625 860.558594 L 2071.648438 860.558594 L 2071.640625 860.558594 L 2071.691406 860.589844 L 2071.699219 860.589844 C 2047.390625 895.570312 2020.609375 936.179688 1993.789062 976.828125 L 1993.800781 976.839844 C 1993.578125 977.160156 1993.230469 977.390625 1992.851562 977.449219 C 1992.839844 977.449219 1992.839844 977.449219 1992.828125 977.449219 C 1992.761719 977.460938 1992.679688 977.46875 1992.609375 977.46875 C 1992.558594 977.46875 1992.511719 977.460938 1992.460938 977.460938 L 1940.460938 972.011719 L 1940.449219 972.011719 L 1927.039062 989.761719 L 1974.878906 1011.441406 L 1976.171875 1012.019531 L 1977.75 1011.78125 L 1977.871094 1013.378906 L 1977.878906 1013.378906 L 1978.730469 1014.5 L 1976.179688 1014.878906 L 1976.179688 1014.890625 L 1978.730469 1014.5 L 2010.628906 1056.230469 L 2024.898438 1039.160156 L 2007.878906 989.71875 C 2007.839844 989.621094 2007.820312 989.519531 2007.808594 989.421875 C 2007.808594 989.410156 2007.808594 989.410156 2007.808594 989.410156 L 2007.800781 989.398438 C 2007.761719 989 2007.890625 988.578125 2008.191406 988.28125 L 2008.730469 987.710938 C 2042.128906 952.609375 2075.449219 917.578125 2103.898438 886.191406 L 2104.199219 885.871094 L 2104.5 885.539062 C 2104.941406 885.050781 2105.390625 884.558594 2105.828125 884.070312 L 2105.839844 884.070312 L 2107.558594 886.25 L 2107.609375 886.320312 L 2168.878906 964.140625 L 2174.910156 971.800781 L 2220.519531 1029.730469 L 2220.53125 1029.730469 L 2232.300781 980.75 L 2232.300781 980.738281 L 2205.738281 935.941406 L 2223.300781 915.519531 C 2226.929688 911.289062 2226.449219 904.910156 2222.21875 901.28125 C 2222.121094 901.191406 2222.019531 901.109375 2221.921875 901.03125 C 2220.070312 899.558594 2217.851562 898.839844 2215.640625 898.839844 C 2212.800781 898.839844 2209.980469 900.03125 2207.980469 902.351562 L 2194.878906 917.589844 L 2148.480469 839.320312 L 2148.46875 839.300781 L 2146.949219 836.730469 L 2146.941406 836.71875 C 2147.570312 835.960938 2148.238281 835.140625 2148.851562 834.378906 L 2148.859375 834.390625 C 2158.21875 822.859375 2166.039062 812.480469 2171.859375 803.609375 C 2189.949219 776.011719 2188.429688 763.449219 2181.589844 755.441406 C 2178.929688 754.058594 2176.011719 753.179688 2172.660156 753.179688 C 2164.261719 753.179688 2153.179688 758.730469 2136.859375 775.78125 C 2129.519531 783.449219 2121.179688 793.390625 2112.050781 805.109375 L 2112.039062 805.109375 L 2110.628906 804.660156 L 2110.628906 804.671875 L 2110.679688 804.691406 L 2112.039062 805.121094 L 2112.050781 805.121094 C 2111.441406 805.910156 2110.820312 806.710938 2110.199219 807.5 L 2110.070312 807.460938 L 2108.589844 806.988281 L 2107.328125 806.589844 L 2020.621094 779.019531 L 2032.519531 762.820312 C 2035.738281 758.429688 2034.890625 752.308594 2030.671875 748.941406 C 2030.570312 748.859375 2030.460938 748.78125 2030.359375 748.699219 C 2028.558594 747.378906 2026.460938 746.738281 2024.378906 746.738281 Z M 2024.378906 746.738281 "/>
</svg>
