<?xml version="1.0" encoding="UTF-8"?>
<svg xmlns="http://www.w3.org/2000/svg" xmlns:xlink="http://www.w3.org/1999/xlink" width="4000" height="4000" viewBox="0 0 4000 4000">
<defs>
<clipPath id="clip-0">
<path clip-rule="nonzero" d="M 1147 920 L 2395 920 L 2395 1806 L 1147 1806 Z M 1147 920 "/>
</clipPath>
<clipPath id="clip-1">
<path clip-rule="nonzero" d="M 2394.820312 1209.070312 C 2209.21875 1253.648438 2026.441406 1315.851562 1851.351562 1394 C 1672.410156 1473.871094 1500.578125 1570.820312 1340.578125 1682.179688 C 1284.558594 1721.25 1229.191406 1762.558594 1175.859375 1805.089844 C 1139.109375 1682.71875 1138.128906 1554.890625 1169.089844 1435.449219 L 1334.328125 1362.929688 L 1177.121094 1406.960938 C 1183.429688 1386.308594 1190.699219 1365.941406 1198.929688 1345.949219 L 1387.820312 1263.050781 L 1214.101562 1311.699219 C 1224.261719 1290.359375 1235.539062 1269.5 1247.921875 1249.21875 L 1421.96875 1172.839844 L 1269.921875 1215.429688 C 1327.179688 1132.878906 1403.519531 1061.648438 1496.898438 1008.988281 C 1806.410156 834.398438 2193.53125 925.578125 2394.820312 1209.070312 Z M 2394.820312 1209.070312 "/>
</clipPath>
<clipPath id="clip-2">
<path clip-rule="nonzero" d="M 2394.820312 1209.070312 C 2209.21875 1253.648438 2026.441406 1315.851562 1851.351562 1394 C 1672.410156 1473.871094 1500.578125 1570.820312 1340.578125 1682.179688 C 1284.558594 1721.25 1229.191406 1762.558594 1175.859375 1805.089844 C 1139.109375 1682.71875 1138.128906 1554.890625 1169.089844 1435.449219 L 1334.328125 1362.929688 L 1177.121094 1406.960938 C 1183.429688 1386.308594 1190.699219 1365.941406 1198.929688 1345.949219 L 1387.820312 1263.050781 L 1214.101562 1311.699219 C 1224.261719 1290.359375 1235.539062 1269.5 1247.921875 1249.21875 L 1421.96875 1172.839844 L 1269.921875 1215.429688 C 1327.179688 1132.878906 1403.519531 1061.648438 1496.898438 1008.988281 C 1806.410156 834.398438 2193.53125 925.578125 2394.820312 1209.070312 "/>
</clipPath>
<linearGradient id="linear-pattern-0" gradientUnits="userSpaceOnUse" x1="-0.072322" y1="0" x2="1.016792" y2="0" gradientTransform="matrix(1170.89, 22.9585, -22.9585, 1170.89, 1212.6, 1356.83)">
<stop offset="0" stop-color="rgb(93.896484%, 21.427917%, 21.94519%)" stop-opacity="1"/>
<stop offset="0.0625" stop-color="rgb(93.896484%, 21.427917%, 21.94519%)" stop-opacity="1"/>
<stop offset="0.078125" stop-color="rgb(93.908691%, 21.577454%, 21.864319%)" stop-opacity="1"/>
<stop offset="0.0859375" stop-color="rgb(93.928528%, 21.82312%, 21.760559%)" stop-opacity="1"/>
<stop offset="0.09375" stop-color="rgb(93.943787%, 22.010803%, 21.736145%)" stop-opacity="1"/>
<stop offset="0.101563" stop-color="rgb(93.963623%, 22.270203%, 21.688843%)" stop-opacity="1"/>
<stop offset="0.105469" stop-color="rgb(93.992615%, 22.631836%, 21.585083%)" stop-opacity="1"/>
<stop offset="0.109375" stop-color="rgb(94.007874%, 22.822571%, 21.5271%)" stop-opacity="1"/>
<stop offset="0.117188" stop-color="rgb(94.017029%, 22.932434%, 21.470642%)" stop-opacity="1"/>
<stop offset="0.125" stop-color="rgb(94.033813%, 23.141479%, 21.357727%)" stop-opacity="1"/>
<stop offset="0.132812" stop-color="rgb(94.049072%, 23.34137%, 21.246338%)" stop-opacity="1"/>
<stop offset="0.140625" stop-color="rgb(94.064331%, 23.542786%, 21.133423%)" stop-opacity="1"/>
<stop offset="0.148438" stop-color="rgb(94.081116%, 23.74115%, 21.018982%)" stop-opacity="1"/>
<stop offset="0.15625" stop-color="rgb(94.0979%, 23.968506%, 20.903015%)" stop-opacity="1"/>
<stop offset="0.160156" stop-color="rgb(94.12384%, 24.28894%, 20.785522%)" stop-opacity="1"/>
<stop offset="0.164062" stop-color="rgb(94.139099%, 24.479675%, 20.722961%)" stop-opacity="1"/>
<stop offset="0.171875" stop-color="rgb(94.151306%, 24.630737%, 20.663452%)" stop-opacity="1"/>
<stop offset="0.179688" stop-color="rgb(94.171143%, 24.880981%, 20.544434%)" stop-opacity="1"/>
<stop offset="0.1875" stop-color="rgb(94.186401%, 25.083923%, 20.397949%)" stop-opacity="1"/>
<stop offset="0.191406" stop-color="rgb(94.203186%, 25.296021%, 20.193481%)" stop-opacity="1"/>
<stop offset="0.195312" stop-color="rgb(94.210815%, 25.404358%, 20.080566%)" stop-opacity="1"/>
<stop offset="0.203125" stop-color="rgb(94.224548%, 25.564575%, 20.040894%)" stop-opacity="1"/>
<stop offset="0.207031" stop-color="rgb(94.252014%, 25.907898%, 19.992065%)" stop-opacity="1"/>
<stop offset="0.210938" stop-color="rgb(94.267273%, 26.089478%, 19.98291%)" stop-opacity="1"/>
<stop offset="0.21875" stop-color="rgb(94.276428%, 26.202393%, 19.93103%)" stop-opacity="1"/>
<stop offset="0.226562" stop-color="rgb(94.293213%, 26.412964%, 19.819641%)" stop-opacity="1"/>
<stop offset="0.234375" stop-color="rgb(94.308472%, 26.611328%, 19.699097%)" stop-opacity="1"/>
<stop offset="0.242188" stop-color="rgb(94.32373%, 26.809692%, 19.578552%)" stop-opacity="1"/>
<stop offset="0.25" stop-color="rgb(94.340515%, 27.006531%, 19.456482%)" stop-opacity="1"/>
<stop offset="0.257812" stop-color="rgb(94.355774%, 27.204895%, 19.334412%)" stop-opacity="1"/>
<stop offset="0.265625" stop-color="rgb(94.371033%, 27.401733%, 19.212341%)" stop-opacity="1"/>
<stop offset="0.273438" stop-color="rgb(94.386292%, 27.600098%, 19.090271%)" stop-opacity="1"/>
<stop offset="0.28125" stop-color="rgb(94.403076%, 27.796936%, 18.966675%)" stop-opacity="1"/>
<stop offset="0.289063" stop-color="rgb(94.418335%, 27.993774%, 18.841553%)" stop-opacity="1"/>
<stop offset="0.296875" stop-color="rgb(94.433594%, 28.190613%, 18.717957%)" stop-opacity="1"/>
<stop offset="0.304688" stop-color="rgb(94.454956%, 28.453064%, 18.551636%)" stop-opacity="1"/>
<stop offset="0.308594" stop-color="rgb(94.482422%, 28.81012%, 18.321228%)" stop-opacity="1"/>
<stop offset="0.3125" stop-color="rgb(94.497681%, 29.006958%, 18.19458%)" stop-opacity="1"/>
<stop offset="0.320312" stop-color="rgb(94.508362%, 29.127502%, 18.118286%)" stop-opacity="1"/>
<stop offset="0.328125" stop-color="rgb(94.525146%, 29.344177%, 17.976379%)" stop-opacity="1"/>
<stop offset="0.332031" stop-color="rgb(94.548035%, 29.623413%, 17.843628%)" stop-opacity="1"/>
<stop offset="0.335938" stop-color="rgb(94.561768%, 29.804993%, 17.771912%)" stop-opacity="1"/>
<stop offset="0.339844" stop-color="rgb(94.577026%, 29.988098%, 17.701721%)" stop-opacity="1"/>
<stop offset="0.34375" stop-color="rgb(94.592285%, 30.169678%, 17.630005%)" stop-opacity="1"/>
<stop offset="0.351563" stop-color="rgb(94.599915%, 30.267334%, 17.564392%)" stop-opacity="1"/>
<stop offset="0.359375" stop-color="rgb(94.616699%, 30.479431%, 17.445374%)" stop-opacity="1"/>
<stop offset="0.363281" stop-color="rgb(94.641113%, 30.773926%, 17.375183%)" stop-opacity="1"/>
<stop offset="0.367188" stop-color="rgb(94.654846%, 30.953979%, 17.359924%)" stop-opacity="1"/>
<stop offset="0.371094" stop-color="rgb(94.670105%, 31.137085%, 17.326355%)" stop-opacity="1"/>
<stop offset="0.375" stop-color="rgb(94.685364%, 31.32019%, 17.292786%)" stop-opacity="1"/>
<stop offset="0.378906" stop-color="rgb(94.700623%, 31.507874%, 17.219543%)" stop-opacity="1"/>
<stop offset="0.382812" stop-color="rgb(94.715881%, 31.695557%, 17.146301%)" stop-opacity="1"/>
<stop offset="0.390625" stop-color="rgb(94.728088%, 31.838989%, 17.102051%)" stop-opacity="1"/>
<stop offset="0.398438" stop-color="rgb(94.746399%, 32.070923%, 17.051697%)" stop-opacity="1"/>
<stop offset="0.40625" stop-color="rgb(94.766235%, 32.301331%, 17.066956%)" stop-opacity="1"/>
<stop offset="0.410156" stop-color="rgb(94.792175%, 32.614136%, 17.13562%)" stop-opacity="1"/>
<stop offset="0.414063" stop-color="rgb(94.807434%, 32.788086%, 17.179871%)" stop-opacity="1"/>
<stop offset="0.421875" stop-color="rgb(94.810486%, 32.835388%, 17.192078%)" stop-opacity="1"/>
<stop offset="0.4375" stop-color="rgb(94.821167%, 32.954407%, 17.250061%)" stop-opacity="1"/>
<stop offset="0.445312" stop-color="rgb(94.8349%, 33.110046%, 17.347717%)" stop-opacity="1"/>
<stop offset="0.449219" stop-color="rgb(94.856262%, 33.372498%, 17.38739%)" stop-opacity="1"/>
<stop offset="0.453125" stop-color="rgb(94.871521%, 33.554077%, 17.373657%)" stop-opacity="1"/>
<stop offset="0.457031" stop-color="rgb(94.88678%, 33.735657%, 17.350769%)" stop-opacity="1"/>
<stop offset="0.460938" stop-color="rgb(94.902039%, 33.91571%, 17.327881%)" stop-opacity="1"/>
<stop offset="0.464844" stop-color="rgb(94.917297%, 34.103394%, 17.254639%)" stop-opacity="1"/>
<stop offset="0.46875" stop-color="rgb(94.932556%, 34.291077%, 17.179871%)" stop-opacity="1"/>
<stop offset="0.476563" stop-color="rgb(94.944763%, 34.454346%, 17.106628%)" stop-opacity="1"/>
<stop offset="0.484375" stop-color="rgb(94.966125%, 34.713745%, 16.964722%)" stop-opacity="1"/>
<stop offset="0.492188" stop-color="rgb(94.981384%, 34.907532%, 16.827393%)" stop-opacity="1"/>
<stop offset="0.5" stop-color="rgb(94.996643%, 35.101318%, 16.690063%)" stop-opacity="1"/>
<stop offset="0.507812" stop-color="rgb(95.016479%, 35.343933%, 16.548157%)" stop-opacity="1"/>
<stop offset="0.511719" stop-color="rgb(95.043945%, 35.673523%, 16.397095%)" stop-opacity="1"/>
<stop offset="0.515625" stop-color="rgb(95.059204%, 35.861206%, 16.319275%)" stop-opacity="1"/>
<stop offset="0.519531" stop-color="rgb(95.074463%, 36.047363%, 16.239929%)" stop-opacity="1"/>
<stop offset="0.523438" stop-color="rgb(95.089722%, 36.233521%, 16.162109%)" stop-opacity="1"/>
<stop offset="0.527344" stop-color="rgb(95.10498%, 36.419678%, 16.08429%)" stop-opacity="1"/>
<stop offset="0.53125" stop-color="rgb(95.120239%, 36.605835%, 16.00647%)" stop-opacity="1"/>
<stop offset="0.535156" stop-color="rgb(95.135498%, 36.793518%, 15.927124%)" stop-opacity="1"/>
<stop offset="0.539063" stop-color="rgb(95.150757%, 36.978149%, 15.847778%)" stop-opacity="1"/>
<stop offset="0.542969" stop-color="rgb(95.166016%, 37.164307%, 15.768433%)" stop-opacity="1"/>
<stop offset="0.546875" stop-color="rgb(95.181274%, 37.350464%, 15.689087%)" stop-opacity="1"/>
<stop offset="0.550781" stop-color="rgb(95.109558%, 37.45575%, 15.571594%)" stop-opacity="1"/>
<stop offset="0.554688" stop-color="rgb(95.037842%, 37.561035%, 15.454102%)" stop-opacity="1"/>
<stop offset="0.558594" stop-color="rgb(94.967651%, 37.666321%, 15.338135%)" stop-opacity="1"/>
<stop offset="0.5625" stop-color="rgb(94.895935%, 37.771606%, 15.220642%)" stop-opacity="1"/>
<stop offset="0.566406" stop-color="rgb(94.911194%, 37.957764%, 15.139771%)" stop-opacity="1"/>
<stop offset="0.570313" stop-color="rgb(94.926453%, 38.143921%, 15.057373%)" stop-opacity="1"/>
<stop offset="0.574219" stop-color="rgb(94.923401%, 38.328552%, 14.979553%)" stop-opacity="1"/>
<stop offset="0.578125" stop-color="rgb(94.921875%, 38.511658%, 14.900208%)" stop-opacity="1"/>
<stop offset="0.582031" stop-color="rgb(94.850159%, 38.693237%, 14.833069%)" stop-opacity="1"/>
<stop offset="0.585938" stop-color="rgb(94.779968%, 38.876343%, 14.76593%)" stop-opacity="1"/>
<stop offset="0.59375" stop-color="rgb(94.735718%, 39.028931%, 14.675903%)" stop-opacity="1"/>
<stop offset="0.597656" stop-color="rgb(94.699097%, 39.283752%, 14.447021%)" stop-opacity="1"/>
<stop offset="0.601563" stop-color="rgb(94.706726%, 39.38446%, 14.309692%)" stop-opacity="1"/>
<stop offset="0.609375" stop-color="rgb(94.718933%, 39.524841%, 14.196777%)" stop-opacity="1"/>
<stop offset="0.613281" stop-color="rgb(94.743347%, 39.848328%, 14.001465%)" stop-opacity="1"/>
<stop offset="0.617188" stop-color="rgb(94.758606%, 40.032959%, 13.916016%)" stop-opacity="1"/>
<stop offset="0.621094" stop-color="rgb(94.720459%, 40.214539%, 13.841248%)" stop-opacity="1"/>
<stop offset="0.625" stop-color="rgb(94.683838%, 40.394592%, 13.766479%)" stop-opacity="1"/>
<stop offset="0.628906" stop-color="rgb(94.612122%, 40.574646%, 13.697815%)" stop-opacity="1"/>
<stop offset="0.632813" stop-color="rgb(94.540405%, 40.7547%, 13.627625%)" stop-opacity="1"/>
<stop offset="0.640625" stop-color="rgb(94.528198%, 40.872192%, 13.554382%)" stop-opacity="1"/>
<stop offset="0.648438" stop-color="rgb(94.522095%, 41.081238%, 13.404846%)" stop-opacity="1"/>
<stop offset="0.652344" stop-color="rgb(94.541931%, 41.342163%, 13.301086%)" stop-opacity="1"/>
<stop offset="0.65625" stop-color="rgb(94.555664%, 41.51001%, 13.275146%)" stop-opacity="1"/>
<stop offset="0.660156" stop-color="rgb(94.569397%, 41.687012%, 13.253784%)" stop-opacity="1"/>
<stop offset="0.664063" stop-color="rgb(94.584656%, 41.86554%, 13.232422%)" stop-opacity="1"/>
<stop offset="0.667969" stop-color="rgb(94.598389%, 42.042542%, 13.212585%)" stop-opacity="1"/>
<stop offset="0.671875" stop-color="rgb(94.612122%, 42.219543%, 13.191223%)" stop-opacity="1"/>
<stop offset="0.679688" stop-color="rgb(94.625854%, 42.384338%, 13.171387%)" stop-opacity="1"/>
<stop offset="0.6875" stop-color="rgb(94.645691%, 42.637634%, 13.142395%)" stop-opacity="1"/>
<stop offset="0.695313" stop-color="rgb(94.662476%, 42.842102%, 13.117981%)" stop-opacity="1"/>
<stop offset="0.699219" stop-color="rgb(94.685364%, 43.133545%, 13.084412%)" stop-opacity="1"/>
<stop offset="0.703125" stop-color="rgb(94.699097%, 43.310547%, 13.063049%)" stop-opacity="1"/>
<stop offset="0.707031" stop-color="rgb(94.67926%, 43.489075%, 13.020325%)" stop-opacity="1"/>
<stop offset="0.710938" stop-color="rgb(94.656372%, 43.664551%, 12.979126%)" stop-opacity="1"/>
<stop offset="0.714844" stop-color="rgb(94.58313%, 43.841553%, 12.90741%)" stop-opacity="1"/>
<stop offset="0.71875" stop-color="rgb(94.509888%, 44.018555%, 12.835693%)" stop-opacity="1"/>
<stop offset="0.726563" stop-color="rgb(94.480896%, 44.146729%, 12.799072%)" stop-opacity="1"/>
<stop offset="0.734375" stop-color="rgb(94.459534%, 44.361877%, 12.750244%)" stop-opacity="1"/>
<stop offset="0.742188" stop-color="rgb(94.477844%, 44.602966%, 12.675476%)" stop-opacity="1"/>
<stop offset="0.746094" stop-color="rgb(94.503784%, 44.93866%, 12.521362%)" stop-opacity="1"/>
<stop offset="0.75" stop-color="rgb(94.517517%, 45.120239%, 12.431335%)" stop-opacity="1"/>
<stop offset="0.753906" stop-color="rgb(94.532776%, 45.301819%, 12.341309%)" stop-opacity="1"/>
<stop offset="0.757813" stop-color="rgb(94.546509%, 45.481873%, 12.251282%)" stop-opacity="1"/>
<stop offset="0.761719" stop-color="rgb(94.560242%, 45.663452%, 12.161255%)" stop-opacity="1"/>
<stop offset="0.765625" stop-color="rgb(94.5755%, 45.845032%, 12.071228%)" stop-opacity="1"/>
<stop offset="0.773438" stop-color="rgb(94.58313%, 45.942688%, 11.990356%)" stop-opacity="1"/>
<stop offset="0.78125" stop-color="rgb(94.598389%, 46.141052%, 11.82251%)" stop-opacity="1"/>
<stop offset="0.785156" stop-color="rgb(94.621277%, 46.426392%, 11.575317%)" stop-opacity="1"/>
<stop offset="0.789063" stop-color="rgb(94.63501%, 46.611023%, 11.413574%)" stop-opacity="1"/>
<stop offset="0.796875" stop-color="rgb(94.647217%, 46.775818%, 11.270142%)" stop-opacity="1"/>
<stop offset="0.804688" stop-color="rgb(94.668579%, 47.032166%, 11.044312%)" stop-opacity="1"/>
<stop offset="0.8125" stop-color="rgb(94.685364%, 47.24884%, 10.902405%)" stop-opacity="1"/>
<stop offset="0.816406" stop-color="rgb(94.708252%, 47.546387%, 10.816956%)" stop-opacity="1"/>
<stop offset="0.820313" stop-color="rgb(94.721985%, 47.723389%, 10.794067%)" stop-opacity="1"/>
<stop offset="0.824219" stop-color="rgb(94.735718%, 47.901917%, 10.734558%)" stop-opacity="1"/>
<stop offset="0.828125" stop-color="rgb(94.750977%, 48.078918%, 10.675049%)" stop-opacity="1"/>
<stop offset="0.832031" stop-color="rgb(94.764709%, 48.260498%, 10.580444%)" stop-opacity="1"/>
<stop offset="0.835938" stop-color="rgb(94.778442%, 48.440552%, 10.48584%)" stop-opacity="1"/>
<stop offset="0.839844" stop-color="rgb(94.741821%, 48.667908%, 10.440063%)" stop-opacity="1"/>
<stop offset="0.84375" stop-color="rgb(94.7052%, 48.89679%, 10.392761%)" stop-opacity="1"/>
<stop offset="0.847656" stop-color="rgb(94.636536%, 49.153137%, 10.375977%)" stop-opacity="1"/>
<stop offset="0.851563" stop-color="rgb(94.567871%, 49.407959%, 10.357666%)" stop-opacity="1"/>
<stop offset="0.855469" stop-color="rgb(94.630432%, 49.607849%, 10.321045%)" stop-opacity="1"/>
<stop offset="0.859375" stop-color="rgb(94.692993%, 49.809265%, 10.282898%)" stop-opacity="1"/>
<stop offset="0.863281" stop-color="rgb(94.796753%, 49.995422%, 10.238647%)" stop-opacity="1"/>
<stop offset="0.867188" stop-color="rgb(94.898987%, 50.180054%, 10.195923%)" stop-opacity="1"/>
<stop offset="0.871094" stop-color="rgb(94.921875%, 50.358582%, 10.168457%)" stop-opacity="1"/>
<stop offset="0.875" stop-color="rgb(94.944763%, 50.534058%, 10.142517%)" stop-opacity="1"/>
<stop offset="0.878906" stop-color="rgb(94.958496%, 50.71106%, 10.119629%)" stop-opacity="1"/>
<stop offset="0.882813" stop-color="rgb(94.972229%, 50.886536%, 10.098267%)" stop-opacity="1"/>
<stop offset="0.886719" stop-color="rgb(94.985962%, 51.060486%, 10.145569%)" stop-opacity="1"/>
<stop offset="0.890625" stop-color="rgb(94.999695%, 51.23291%, 10.194397%)" stop-opacity="1"/>
<stop offset="0.898438" stop-color="rgb(94.998169%, 51.390076%, 10.235596%)" stop-opacity="1"/>
<stop offset="0.90625" stop-color="rgb(94.91272%, 51.626587%, 10.284424%)" stop-opacity="1"/>
<stop offset="0.914063" stop-color="rgb(94.776917%, 51.812744%, 10.290527%)" stop-opacity="1"/>
<stop offset="0.917969" stop-color="rgb(94.734192%, 52.096558%, 10.264587%)" stop-opacity="1"/>
<stop offset="0.921875" stop-color="rgb(94.747925%, 52.272034%, 10.241699%)" stop-opacity="1"/>
<stop offset="0.925781" stop-color="rgb(94.761658%, 52.445984%, 10.249329%)" stop-opacity="1"/>
<stop offset="0.929688" stop-color="rgb(94.775391%, 52.62146%, 10.256958%)" stop-opacity="1"/>
<stop offset="0.933594" stop-color="rgb(94.789124%, 52.79541%, 10.307312%)" stop-opacity="1"/>
<stop offset="0.9375" stop-color="rgb(94.802856%, 52.967834%, 10.35614%)" stop-opacity="1"/>
<stop offset="0.945313" stop-color="rgb(94.812012%, 53.096008%, 10.3302%)" stop-opacity="1"/>
<stop offset="0.953125" stop-color="rgb(94.828796%, 53.312683%, 10.217285%)" stop-opacity="1"/>
<stop offset="0.957031" stop-color="rgb(94.85321%, 53.614807%, 10.079956%)" stop-opacity="1"/>
<stop offset="0.960938" stop-color="rgb(94.869995%, 53.82843%, 10.029602%)" stop-opacity="1"/>
<stop offset="0.964844" stop-color="rgb(94.889832%, 54.092407%, 9.994507%)" stop-opacity="1"/>
<stop offset="0.96875" stop-color="rgb(94.911194%, 54.356384%, 9.957886%)" stop-opacity="1"/>
<stop offset="0.976563" stop-color="rgb(94.844055%, 54.464722%, 9.959412%)" stop-opacity="1"/>
<stop offset="0.984375" stop-color="rgb(94.692993%, 54.647827%, 9.970093%)" stop-opacity="1"/>
<stop offset="1" stop-color="rgb(94.606018%, 54.725647%, 9.979248%)" stop-opacity="1"/>
</linearGradient>
</defs>
<rect x="-400" y="-400" width="4800" height="4800" fill="rgb(100%, 100%, 100%)" fill-opacity="1"/>
<g clip-path="url(#clip-0)">
<g clip-path="url(#clip-1)">
<g clip-path="url(#clip-2)">
<path fill-rule="nonzero" fill="url(#linear-pattern-0)" d="M 1138.613281 809.769531 L 1119.105469 1804.71875 L 2394.335938 1829.722656 L 2413.847656 834.773438 Z M 1138.613281 809.769531 "/>
</g>
</g>
</g>
<path fill-rule="nonzero" fill="rgb(65.454102%, 88.877869%, 97.587585%)" fill-opacity="1" d="M 2172.449219 2206.71875 C 1849.929688 2388.628906 1443.140625 2281.988281 1250.148438 1969.890625 C 1245.21875 1961.941406 1240.449219 1953.851562 1235.808594 1945.628906 C 1231.488281 1937.980469 1227.339844 1930.28125 1223.351562 1922.539062 C 1399.898438 1936.820312 1509.789062 1894.191406 1581.128906 1838.480469 C 1706.011719 1740.980469 1684.859375 1625.179688 1810.53125 1557.53125 C 1930.949219 1492.71875 2010.261719 1566.820312 2158.5 1519.519531 C 2284.980469 1479.160156 2373.339844 1378.578125 2435.609375 1273.78125 C 2443.871094 1288.699219 2451.511719 1303.800781 2458.550781 1319.058594 C 2606.589844 1640.289062 2484.011719 2030.988281 2172.449219 2206.71875 "/>
<path fill-rule="nonzero" fill="rgb(56.660461%, 69.035339%, 88.278198%)" fill-opacity="1" d="M 2172.449219 2206.71875 C 1862.851562 2381.328125 1475.621094 2290.078125 1274.371094 2006.421875 C 1265.960938 1994.578125 1257.878906 1982.398438 1250.148438 1969.890625 C 1413.28125 1976.78125 1517.539062 1934.570312 1586.800781 1880.488281 C 1716.429688 1779.269531 1694.488281 1659.058594 1824.941406 1588.839844 C 1949.941406 1521.550781 2032.28125 1598.480469 2186.148438 1549.378906 C 2307.429688 1510.679688 2394.960938 1418.628906 2458.550781 1319.058594 C 2466.871094 1337.109375 2474.328125 1355.378906 2480.949219 1373.820312 C 2592.21875 1683.519531 2466.5 2040.859375 2172.449219 2206.71875 "/>
<path fill-rule="nonzero" fill="rgb(40.486145%, 43.748474%, 74.954224%)" fill-opacity="1" d="M 2172.449219 2206.71875 C 1862.851562 2381.328125 1475.621094 2290.078125 1274.371094 2006.421875 C 1436.769531 2011.730469 1541.21875 1969 1611.011719 1914.511719 C 1743.828125 1810.800781 1721.351562 1687.621094 1855.019531 1615.671875 C 1983.101562 1546.71875 2067.46875 1625.550781 2225.140625 1575.238281 C 2335.21875 1540.101562 2418.160156 1462.101562 2480.949219 1373.820312 C 2592.21875 1683.519531 2466.5 2040.859375 2172.449219 2206.71875 "/>
<path fill-rule="nonzero" fill="rgb(40.486145%, 43.748474%, 74.954224%)" fill-opacity="1" d="M 2647.890625 1191.960938 C 2572.011719 1206.5 2496.671875 1223.851562 2422.128906 1244.039062 C 2420.980469 1244.351562 2419.828125 1244.660156 2418.679688 1244.980469 C 2043.941406 1346.640625 1688.558594 1520.621094 1378.78125 1754.441406 C 1365.851562 1764.410156 1345.929688 1779.300781 1333.191406 1789.480469 C 1322.949219 1797.648438 1304.03125 1812.511719 1293.828125 1820.800781 C 1283.339844 1829.441406 1265.550781 1844.121094 1255.019531 1852.78125 C 1243 1863.109375 1223.28125 1879.710938 1211.351562 1890.128906 C 1210.480469 1890.890625 1209.609375 1891.648438 1208.738281 1892.421875 C 1200.511719 1874.390625 1193.128906 1856.160156 1186.578125 1837.78125 C 1242.589844 1792.761719 1300.128906 1749.660156 1359.011719 1708.601562 C 1677.230469 1487.121094 2037.019531 1326.609375 2414.039062 1237.609375 C 2491.328125 1219.351562 2569.351562 1204.101562 2647.890625 1191.960938 "/>
<path fill-rule="nonzero" fill="rgb(6.266785%, 5.734253%, 5.047607%)" fill-opacity="1" d="M 1900.761719 1066.171875 C 1887.46875 1037.808594 1863.46875 1021.699219 1836.378906 1009.160156 C 1825.058594 1003.929688 1813.28125 999.929688 1801 996.699219 C 1802.890625 995.859375 1804.640625 995.980469 1806.359375 995.96875 C 1842.960938 995.679688 1873.160156 1009.769531 1897.601562 1036.71875 C 1900.699219 1040.140625 1900.621094 1040.160156 1904.101562 1037.191406 C 1915.929688 1027.109375 1929.730469 1021.730469 1945.078125 1020.03125 C 1956.289062 1018.78125 1967.308594 1019.929688 1978.320312 1022.609375 C 1946.351562 1026.160156 1918.671875 1037.261719 1900.761719 1066.171875 "/>
<path fill-rule="nonzero" fill="rgb(6.266785%, 5.734253%, 5.047607%)" fill-opacity="1" d="M 1786.679688 1132.089844 C 1769.238281 1109.050781 1745.140625 1098.550781 1717.410156 1093.101562 C 1720.839844 1092.019531 1723.699219 1091.898438 1726.511719 1091.691406 C 1742.808594 1090.519531 1758.609375 1092.160156 1773.28125 1100.101562 C 1775.859375 1101.488281 1778.359375 1103.03125 1780.589844 1104.898438 C 1781.910156 1106.011719 1782.429688 1105.988281 1783.269531 1104.390625 C 1790.578125 1090.671875 1800.328125 1078.929688 1812.460938 1069.199219 C 1824.398438 1059.621094 1837.839844 1053.171875 1852.820312 1049.921875 C 1853.578125 1049.75 1854.351562 1049.488281 1855.480469 1049.898438 C 1849.019531 1053.71875 1842.910156 1057.640625 1837.058594 1061.949219 C 1822.238281 1072.839844 1808.75 1085.070312 1798.589844 1100.601562 C 1792.359375 1110.121094 1788.089844 1120.390625 1786.679688 1132.089844 "/>
<path fill-rule="nonzero" fill="rgb(6.266785%, 5.734253%, 5.047607%)" fill-opacity="1" d="M 1883.210938 1154.21875 C 1891.851562 1145 1903.050781 1141.980469 1914.738281 1140.300781 C 1928.140625 1138.378906 1941.53125 1139.199219 1955.570312 1141.03125 C 1923.789062 1142.699219 1896.339844 1151.460938 1878.949219 1180.308594 C 1870.5 1150.511719 1852.449219 1127.96875 1826.941406 1111 C 1843.441406 1108.679688 1867.78125 1127.351562 1883.210938 1154.21875 "/>
<path fill-rule="nonzero" fill="rgb(6.266785%, 5.734253%, 5.047607%)" fill-opacity="1" d="M 2005.320312 1134.289062 C 2013.96875 1125.070312 2025.160156 1122.050781 2036.851562 1120.378906 C 2050.25 1118.460938 2063.640625 1119.269531 2077.691406 1121.101562 C 2045.898438 1122.769531 2018.460938 1131.53125 2001.058594 1160.378906 C 1992.609375 1130.578125 1974.570312 1108.039062 1949.050781 1091.070312 C 1965.550781 1088.75 1989.898438 1107.429688 2005.320312 1134.289062 "/>
<path fill-rule="nonzero" fill="rgb(6.266785%, 5.734253%, 5.047607%)" fill-opacity="1" d="M 1833.859375 1172.539062 C 1823.070312 1183.210938 1814.070312 1194.800781 1812.898438 1211.109375 C 1802.289062 1196.960938 1788.300781 1188.691406 1771.230469 1185.519531 C 1777.851562 1181.601562 1799.480469 1186.308594 1808.539062 1193.78125 C 1813.101562 1182.070312 1821.71875 1175.199219 1833.859375 1172.539062 "/>
<path fill-rule="nonzero" fill="rgb(6.266785%, 5.734253%, 5.047607%)" fill-opacity="1" d="M 2040.78125 1191.621094 C 2029.988281 1202.289062 2020.988281 1213.878906 2019.820312 1230.191406 C 2009.210938 1216.039062 1995.21875 1207.769531 1978.148438 1204.601562 C 1984.769531 1200.679688 2006.398438 1205.390625 2015.460938 1212.859375 C 2020.019531 1201.148438 2028.640625 1194.28125 2040.78125 1191.621094 "/>
<path fill-rule="nonzero" fill="rgb(40.486145%, 43.748474%, 74.954224%)" fill-opacity="1" d="M 2672.121094 1221.320312 C 2672.03125 1221.261719 2671.929688 1221.210938 2671.839844 1221.160156 C 2671.640625 1220.011719 2671.960938 1218.910156 2672.171875 1217.820312 C 2673.96875 1208.269531 2675.679688 1198.710938 2677.558594 1189.171875 C 2677.851562 1187.679688 2677.480469 1186.671875 2676.511719 1185.558594 C 2669.789062 1177.851562 2663.089844 1170.109375 2656.449219 1162.328125 C 2655.128906 1160.78125 2655.230469 1160.519531 2657.261719 1159.960938 C 2663.261719 1158.300781 2669.269531 1156.691406 2675.261719 1155.03125 C 2676.511719 1154.679688 2677.480469 1154.820312 2678.511719 1155.691406 C 2683.398438 1159.769531 2688.398438 1163.71875 2693.320312 1167.78125 C 2694.261719 1168.558594 2695.078125 1168.679688 2696.238281 1168.28125 C 2700.039062 1166.960938 2703.949219 1166.011719 2707.808594 1164.878906 C 2713.261719 1163.269531 2718.71875 1161.679688 2724.160156 1160.050781 C 2729.601562 1158.421875 2735.121094 1157.058594 2740.488281 1155.179688 C 2741.828125 1154.710938 2741.890625 1154.609375 2741.140625 1153.21875 C 2736.328125 1144.371094 2731.519531 1135.519531 2726.710938 1126.660156 C 2719.371094 1113.148438 2712.03125 1099.628906 2704.710938 1086.101562 C 2703.730469 1084.28125 2703.929688 1083.78125 2705.878906 1083.238281 C 2712.550781 1081.390625 2719.238281 1079.628906 2725.898438 1077.738281 C 2727.558594 1077.261719 2728.539062 1077.96875 2729.511719 1079.070312 C 2734.171875 1084.320312 2738.859375 1089.53125 2743.53125 1094.78125 C 2757.011719 1109.960938 2770.691406 1124.96875 2784.101562 1140.210938 C 2785.210938 1141.46875 2786.238281 1141.828125 2787.871094 1141.339844 C 2799.25 1137.871094 2810.679688 1134.539062 2822.101562 1131.199219 C 2825.441406 1130.21875 2828.800781 1129.308594 2832.128906 1128.28125 C 2837.371094 1126.640625 2842.070312 1127.808594 2846.421875 1130.890625 C 2851.71875 1134.640625 2853.488281 1139.910156 2852.890625 1146.191406 C 2852.769531 1147.449219 2851.980469 1148.460938 2851.738281 1149.671875 C 2850.878906 1151.160156 2850.03125 1152.648438 2849.179688 1154.140625 C 2846.769531 1157.449219 2843.308594 1158.921875 2839.488281 1159.941406 C 2830.121094 1162.449219 2820.671875 1164.660156 2811.28125 1167.070312 C 2806.039062 1168.410156 2800.828125 1169.898438 2795.519531 1170.949219 C 2794.101562 1171.230469 2793.511719 1172.019531 2793.230469 1173.421875 C 2788.53125 1196.949219 2783.589844 1220.429688 2778.890625 1243.960938 C 2778.171875 1247.589844 2777.269531 1251.191406 2776.621094 1254.828125 C 2776.398438 1256.089844 2775.800781 1256.808594 2774.539062 1257.148438 C 2767.75 1258.96875 2760.980469 1260.851562 2754.199219 1262.671875 C 2752.410156 1263.148438 2751.980469 1262.851562 2751.898438 1260.941406 C 2751.660156 1254.828125 2751.53125 1248.710938 2751.328125 1242.601562 C 2750.730469 1223.191406 2750.148438 1203.78125 2749.550781 1184.371094 C 2749.5 1182.710938 2749.398438 1182.671875 2747.730469 1183.058594 C 2740.378906 1184.78125 2733.078125 1186.761719 2725.738281 1188.539062 C 2718.039062 1190.421875 2710.378906 1192.460938 2702.660156 1194.28125 C 2701.601562 1194.53125 2701.21875 1195.261719 2700.890625 1196.148438 C 2698.691406 1202.089844 2696.46875 1208.019531 2694.300781 1213.96875 C 2693.820312 1215.300781 2693.03125 1215.941406 2691.71875 1216.289062 C 2685.859375 1217.839844 2680.019531 1219.460938 2674.179688 1221.058594 C 2673.5 1221.25 2672.820312 1221.320312 2672.121094 1221.320312 "/>
<path fill-rule="nonzero" fill="rgb(6.266785%, 5.734253%, 5.047607%)" fill-opacity="1" d="M 1111.890625 2849.921875 C 1100.050781 2849.921875 1089.050781 2847.988281 1078.890625 2844.109375 C 1068.730469 2840.238281 1059.921875 2834.71875 1052.46875 2827.558594 C 1045.011719 2820.398438 1039.199219 2811.988281 1035.039062 2802.339844 C 1030.871094 2792.699219 1028.789062 2782.101562 1028.789062 2770.550781 C 1028.789062 2759.011719 1030.871094 2748.410156 1035.039062 2738.761719 C 1039.199219 2729.109375 1045.050781 2720.710938 1052.578125 2713.539062 C 1060.101562 2706.378906 1068.949219 2700.859375 1079.109375 2696.988281 C 1089.269531 2693.121094 1100.269531 2691.179688 1112.109375 2691.179688 C 1125.410156 2691.179688 1137.46875 2693.480469 1148.289062 2698.078125 C 1159.101562 2702.691406 1168.160156 2709.449219 1175.46875 2718.371094 L 1152.449219 2739.421875 C 1147.328125 2733.421875 1141.519531 2728.890625 1135.019531 2725.820312 C 1128.511719 2722.75 1121.460938 2721.21875 1113.859375 2721.21875 C 1106.699219 2721.21875 1100.121094 2722.421875 1094.128906 2724.828125 C 1088.128906 2727.25 1082.949219 2730.648438 1078.558594 2735.03125 C 1074.171875 2739.421875 1070.78125 2744.609375 1068.359375 2750.601562 C 1065.949219 2756.589844 1064.75 2763.238281 1064.75 2770.550781 C 1064.75 2777.859375 1065.949219 2784.511719 1068.359375 2790.5 C 1070.78125 2796.5 1074.171875 2801.691406 1078.558594 2806.070312 C 1082.949219 2810.460938 1088.128906 2813.859375 1094.128906 2816.269531 C 1100.121094 2818.679688 1106.699219 2819.878906 1113.859375 2819.878906 C 1121.460938 2819.878906 1128.511719 2818.320312 1135.019531 2815.171875 C 1141.519531 2812.03125 1147.328125 2807.460938 1152.449219 2801.46875 L 1175.46875 2822.519531 C 1168.160156 2831.429688 1159.101562 2838.230469 1148.289062 2842.910156 C 1137.46875 2847.578125 1125.328125 2849.921875 1111.890625 2849.921875 "/>
<path fill-rule="nonzero" fill="rgb(6.266785%, 5.734253%, 5.047607%)" fill-opacity="1" d="M 1270.191406 2819.878906 C 1277.058594 2819.878906 1283.378906 2818.679688 1289.160156 2816.269531 C 1294.929688 2813.859375 1300.011719 2810.421875 1304.398438 2805.960938 C 1308.78125 2801.5 1312.179688 2796.308594 1314.589844 2790.390625 C 1317.011719 2784.46875 1318.210938 2777.859375 1318.210938 2770.550781 C 1318.210938 2763.238281 1317.011719 2756.628906 1314.589844 2750.710938 C 1312.179688 2744.789062 1308.78125 2739.601562 1304.398438 2735.140625 C 1300.011719 2730.679688 1294.929688 2727.25 1289.160156 2724.828125 C 1283.378906 2722.421875 1277.058594 2721.21875 1270.191406 2721.21875 C 1263.320312 2721.21875 1256.960938 2722.421875 1251.121094 2724.828125 C 1245.269531 2727.25 1240.191406 2730.679688 1235.878906 2735.140625 C 1231.558594 2739.601562 1228.199219 2744.789062 1225.789062 2750.710938 C 1223.378906 2756.628906 1222.171875 2763.238281 1222.171875 2770.550781 C 1222.171875 2777.859375 1223.378906 2784.46875 1225.789062 2790.390625 C 1228.199219 2796.308594 1231.558594 2801.5 1235.878906 2805.960938 C 1240.191406 2810.421875 1245.269531 2813.859375 1251.121094 2816.269531 C 1256.960938 2818.679688 1263.320312 2819.878906 1270.191406 2819.878906 Z M 1270.410156 2849.921875 C 1258.28125 2849.921875 1247.089844 2847.949219 1236.859375 2844 C 1226.628906 2840.058594 1217.710938 2834.5 1210.109375 2827.339844 C 1202.511719 2820.179688 1196.628906 2811.769531 1192.460938 2802.128906 C 1188.300781 2792.480469 1186.21875 2781.949219 1186.21875 2770.550781 C 1186.21875 2759.011719 1188.300781 2748.441406 1192.460938 2738.871094 C 1196.628906 2729.300781 1202.511719 2720.929688 1210.109375 2713.761719 C 1217.710938 2706.601562 1226.589844 2701.039062 1236.761719 2697.101562 C 1246.910156 2693.148438 1258.058594 2691.179688 1270.191406 2691.179688 C 1282.320312 2691.179688 1293.46875 2693.121094 1303.628906 2696.988281 C 1313.789062 2700.859375 1322.671875 2706.378906 1330.269531 2713.539062 C 1337.871094 2720.710938 1343.761719 2729.109375 1347.921875 2738.761719 C 1352.089844 2748.410156 1354.171875 2759.011719 1354.171875 2770.550781 C 1354.171875 2781.949219 1352.089844 2792.511719 1347.921875 2802.230469 C 1343.761719 2811.960938 1337.871094 2820.398438 1330.269531 2827.558594 C 1322.671875 2834.71875 1313.789062 2840.238281 1303.628906 2844.109375 C 1293.46875 2847.988281 1282.398438 2849.921875 1270.410156 2849.921875 "/>
<path fill-rule="nonzero" fill="rgb(6.266785%, 5.734253%, 5.047607%)" fill-opacity="1" d="M 1380.921875 2847.289062 L 1380.921875 2693.808594 L 1410.300781 2693.808594 L 1475.640625 2802.128906 L 1460.070312 2802.128906 L 1524.101562 2693.808594 L 1553.699219 2693.808594 L 1553.699219 2847.289062 L 1520.589844 2847.289062 L 1520.148438 2744.898438 L 1526.730469 2744.898438 L 1474.980469 2830.851562 L 1459.199219 2830.851562 L 1406.789062 2744.898438 L 1414.03125 2744.898438 L 1414.03125 2847.289062 L 1380.921875 2847.289062 "/>
<path fill-rule="nonzero" fill="rgb(6.266785%, 5.734253%, 5.047607%)" fill-opacity="1" d="M 1626.050781 2792.921875 L 1609.828125 2776.03125 L 1654.769531 2776.03125 C 1665.589844 2776.03125 1673.78125 2773.699219 1679.328125 2769.019531 C 1684.890625 2764.339844 1687.660156 2757.761719 1687.660156 2749.28125 C 1687.660156 2740.808594 1684.890625 2734.261719 1679.328125 2729.660156 C 1673.78125 2725.050781 1665.589844 2722.75 1654.769531 2722.75 L 1609.828125 2722.75 L 1626.050781 2705.871094 Z M 1590.308594 2847.289062 L 1590.308594 2693.808594 L 1656.75 2693.808594 C 1670.488281 2693.808594 1682.328125 2696.039062 1692.269531 2700.5 C 1702.210938 2704.960938 1709.878906 2711.351562 1715.289062 2719.679688 C 1720.699219 2728.011719 1723.398438 2737.878906 1723.398438 2749.28125 C 1723.398438 2760.828125 1720.699219 2770.738281 1715.289062 2778.988281 C 1709.878906 2787.25 1702.210938 2793.648438 1692.269531 2798.179688 C 1682.328125 2802.710938 1670.488281 2804.980469 1656.75 2804.980469 L 1609.828125 2804.980469 L 1626.050781 2788.96875 L 1626.050781 2847.289062 L 1590.308594 2847.289062 "/>
<path fill-rule="nonzero" fill="rgb(6.266785%, 5.734253%, 5.047607%)" fill-opacity="1" d="M 1755.199219 2814.398438 L 1764.191406 2787.429688 L 1843.558594 2787.429688 L 1852.769531 2814.398438 Z M 1720.769531 2847.289062 L 1788.960938 2693.808594 L 1824.039062 2693.808594 L 1892.890625 2847.289062 L 1855.621094 2847.289062 L 1799.269531 2711.789062 L 1813.519531 2711.789062 L 1757.171875 2847.289062 L 1720.769531 2847.289062 "/>
<path fill-rule="nonzero" fill="rgb(6.266785%, 5.734253%, 5.047607%)" fill-opacity="1" d="M 1908.898438 2847.289062 L 1908.898438 2693.808594 L 1938.28125 2693.808594 L 2028.828125 2804.320312 L 2014.578125 2804.320312 L 2014.578125 2693.808594 L 2049.660156 2693.808594 L 2049.660156 2847.289062 L 2020.28125 2847.289062 L 1929.730469 2736.789062 L 1943.980469 2736.789062 L 1943.980469 2847.289062 L 1908.898438 2847.289062 "/>
<path fill-rule="nonzero" fill="rgb(6.266785%, 5.734253%, 5.047607%)" fill-opacity="1" d="M 2124.210938 2847.289062 L 2124.210938 2784.578125 L 2132.328125 2806.070312 L 2064.570312 2693.808594 L 2102.511719 2693.808594 L 2154.25 2779.761719 L 2132.539062 2779.761719 L 2184.511719 2693.808594 L 2219.148438 2693.808594 L 2151.839844 2806.070312 L 2159.949219 2784.578125 L 2159.949219 2847.289062 L 2124.210938 2847.289062 "/>
<path fill-rule="nonzero" fill="rgb(6.266785%, 5.734253%, 5.047607%)" fill-opacity="1" d="M 2296.328125 2847.289062 L 2296.328125 2693.808594 L 2325.710938 2693.808594 L 2416.269531 2804.320312 L 2402.011719 2804.320312 L 2402.011719 2693.808594 L 2437.101562 2693.808594 L 2437.101562 2847.289062 L 2407.71875 2847.289062 L 2317.160156 2736.789062 L 2331.410156 2736.789062 L 2331.410156 2847.289062 L 2296.328125 2847.289062 "/>
<path fill-rule="nonzero" fill="rgb(6.266785%, 5.734253%, 5.047607%)" fill-opacity="1" d="M 2487.75 2814.398438 L 2496.738281 2787.429688 L 2576.109375 2787.429688 L 2585.320312 2814.398438 Z M 2453.320312 2847.289062 L 2521.511719 2693.808594 L 2556.589844 2693.808594 L 2625.441406 2847.289062 L 2588.171875 2847.289062 L 2531.820312 2711.789062 L 2546.070312 2711.789062 L 2489.71875 2847.289062 L 2453.320312 2847.289062 "/>
<path fill-rule="nonzero" fill="rgb(6.266785%, 5.734253%, 5.047607%)" fill-opacity="1" d="M 2641.449219 2847.289062 L 2641.449219 2693.808594 L 2670.828125 2693.808594 L 2736.171875 2802.128906 L 2720.601562 2802.128906 L 2784.628906 2693.808594 L 2814.230469 2693.808594 L 2814.230469 2847.289062 L 2781.121094 2847.289062 L 2780.679688 2744.898438 L 2787.261719 2744.898438 L 2735.511719 2830.851562 L 2719.71875 2830.851562 L 2667.320312 2744.898438 L 2674.558594 2744.898438 L 2674.558594 2847.289062 L 2641.449219 2847.289062 "/>
<path fill-rule="nonzero" fill="rgb(6.266785%, 5.734253%, 5.047607%)" fill-opacity="1" d="M 2883.511719 2755.421875 L 2957.398438 2755.421875 L 2957.398438 2783.269531 L 2883.511719 2783.269531 Z M 2886.140625 2818.789062 L 2969.679688 2818.789062 L 2969.679688 2847.289062 L 2850.839844 2847.289062 L 2850.839844 2693.808594 L 2966.828125 2693.808594 L 2966.828125 2722.308594 L 2886.140625 2722.308594 L 2886.140625 2818.789062 "/>
<path fill-rule="nonzero" fill="rgb(6.266785%, 5.734253%, 5.047607%)" fill-opacity="1" d="M 1550.761719 2974.078125 L 1523.089844 2974.078125 L 1523.089844 3049.050781 L 1516.269531 3049.050781 L 1516.269531 2974.078125 L 1488.648438 2974.078125 L 1488.648438 2968.308594 L 1550.761719 2968.308594 L 1550.761719 2974.078125 "/>
<path fill-rule="nonzero" fill="rgb(6.266785%, 5.734253%, 5.047607%)" fill-opacity="1" d="M 1591.160156 3020.609375 L 1623.539062 3020.609375 L 1607.351562 2976.628906 Z M 1625.699219 3026.371094 L 1589.050781 3026.371094 L 1580.730469 3049.050781 L 1573.578125 3049.050781 L 1604.128906 2968.308594 L 1610.621094 2968.308594 L 1641.171875 3049.050781 L 1634.078125 3049.050781 L 1625.699219 3026.371094 "/>
<path fill-rule="nonzero" fill="rgb(6.266785%, 5.734253%, 5.047607%)" fill-opacity="1" d="M 1733.421875 3039.460938 C 1731.058594 3042.820312 1727.351562 3045.449219 1722.308594 3047.328125 C 1717.261719 3049.21875 1711.609375 3050.160156 1705.359375 3050.160156 C 1699.039062 3050.160156 1693.421875 3048.648438 1688.511719 3045.609375 C 1683.589844 3042.578125 1679.78125 3038.289062 1677.078125 3032.75 C 1674.390625 3027.199219 1673.019531 3020.851562 1672.980469 3013.671875 L 1672.980469 3003.46875 C 1672.980469 2992.269531 1675.808594 2983.421875 1681.46875 2976.941406 C 1687.121094 2970.449219 1694.71875 2967.210938 1704.261719 2967.210938 C 1712.570312 2967.210938 1719.261719 2969.320312 1724.328125 2973.550781 C 1729.390625 2977.789062 1732.410156 2983.621094 1733.371094 2991.050781 L 1726.550781 2991.050781 C 1725.550781 2985.121094 1723.140625 2980.621094 1719.308594 2977.558594 C 1715.480469 2974.5 1710.480469 2972.96875 1704.308594 2972.96875 C 1696.769531 2972.96875 1690.800781 2975.660156 1686.398438 2981.019531 C 1682 2986.378906 1679.800781 2993.949219 1679.800781 3003.71875 L 1679.800781 3013.261719 C 1679.800781 3019.398438 1680.851562 3024.828125 1682.941406 3029.550781 C 1685.019531 3034.269531 1688.019531 3037.921875 1691.921875 3040.511719 C 1695.820312 3043.101562 1700.300781 3044.390625 1705.359375 3044.390625 C 1711.238281 3044.390625 1716.289062 3043.46875 1720.5 3041.621094 C 1723.238281 3040.398438 1725.269531 3038.980469 1726.601562 3037.351562 L 1726.601562 3016.5 L 1704.921875 3016.5 L 1704.921875 3010.738281 L 1733.421875 3010.738281 L 1733.421875 3039.460938 "/>
<path fill-rule="nonzero" fill="rgb(6.266785%, 5.734253%, 5.047607%)" fill-opacity="1" d="M 1782.359375 3043.289062 L 1822.230469 3043.289062 L 1822.230469 3049.050781 L 1775.488281 3049.050781 L 1775.488281 2968.308594 L 1782.359375 2968.308594 L 1782.359375 3043.289062 "/>
<path fill-rule="nonzero" fill="rgb(6.266785%, 5.734253%, 5.047607%)" fill-opacity="1" d="M 1866.351562 3049.050781 L 1859.53125 3049.050781 L 1859.53125 2968.308594 L 1866.351562 2968.308594 L 1866.351562 3049.050781 "/>
<path fill-rule="nonzero" fill="rgb(6.266785%, 5.734253%, 5.047607%)" fill-opacity="1" d="M 1971.078125 3049.050781 L 1964.261719 3049.050781 L 1917.839844 2979.960938 L 1917.839844 3049.050781 L 1910.96875 3049.050781 L 1910.96875 2968.308594 L 1917.839844 2968.308594 L 1964.308594 3037.460938 L 1964.308594 2968.308594 L 1971.078125 2968.308594 L 1971.078125 3049.050781 "/>
<path fill-rule="nonzero" fill="rgb(6.266785%, 5.734253%, 5.047607%)" fill-opacity="1" d="M 2058.890625 3010.351562 L 2021.128906 3010.351562 L 2021.128906 3043.289062 L 2064.539062 3043.289062 L 2064.539062 3049.050781 L 2014.308594 3049.050781 L 2014.308594 2968.308594 L 2064.269531 2968.308594 L 2064.269531 2974.078125 L 2021.128906 2974.078125 L 2021.128906 3004.578125 L 2058.890625 3004.578125 L 2058.890625 3010.351562 "/>
<path fill-rule="nonzero" fill="rgb(6.266785%, 5.734253%, 5.047607%)" fill-opacity="1" d="M 2211.78125 3049.050781 L 2204.898438 3049.050781 L 2204.898438 3010.351562 L 2158.769531 3010.351562 L 2158.769531 3049.050781 L 2151.949219 3049.050781 L 2151.949219 2968.308594 L 2158.769531 2968.308594 L 2158.769531 3004.578125 L 2204.898438 3004.578125 L 2204.898438 2968.308594 L 2211.78125 2968.308594 L 2211.78125 3049.050781 "/>
<path fill-rule="nonzero" fill="rgb(6.266785%, 5.734253%, 5.047607%)" fill-opacity="1" d="M 2299.589844 3010.351562 L 2261.828125 3010.351562 L 2261.828125 3043.289062 L 2305.25 3043.289062 L 2305.25 3049.050781 L 2255.011719 3049.050781 L 2255.011719 2968.308594 L 2304.96875 2968.308594 L 2304.96875 2974.078125 L 2261.828125 2974.078125 L 2261.828125 3004.578125 L 2299.589844 3004.578125 L 2299.589844 3010.351562 "/>
<path fill-rule="nonzero" fill="rgb(6.266785%, 5.734253%, 5.047607%)" fill-opacity="1" d="M 2349.03125 3009.628906 L 2369.941406 3009.628906 C 2375.671875 3009.628906 2380.269531 3008 2383.738281 3004.738281 C 2387.21875 3001.480469 2388.960938 2997.261719 2388.960938 2992.078125 C 2388.960938 2986.378906 2387.140625 2981.949219 2383.519531 2978.800781 C 2379.898438 2975.660156 2374.820312 2974.078125 2368.269531 2974.078125 L 2349.03125 2974.078125 Z M 2372.488281 3015.390625 L 2349.03125 3015.390625 L 2349.03125 3049.050781 L 2342.160156 3049.050781 L 2342.160156 2968.308594 L 2368.378906 2968.308594 C 2377 2968.308594 2383.730469 2970.398438 2388.570312 2974.570312 C 2393.410156 2978.75 2395.828125 2984.578125 2395.828125 2992.078125 C 2395.828125 2997.25 2394.320312 3001.800781 2391.289062 3005.761719 C 2388.25 3009.710938 2384.191406 3012.441406 2379.089844 3013.949219 L 2399.269531 3048.328125 L 2399.269531 3049.050781 L 2392.011719 3049.050781 L 2372.488281 3015.390625 "/>
<path fill-rule="nonzero" fill="rgb(6.266785%, 5.734253%, 5.047607%)" fill-opacity="1" d="M 2481.710938 3010.351562 L 2443.941406 3010.351562 L 2443.941406 3043.289062 L 2487.359375 3043.289062 L 2487.359375 3049.050781 L 2437.121094 3049.050781 L 2437.121094 2968.308594 L 2487.078125 2968.308594 L 2487.078125 2974.078125 L 2443.941406 2974.078125 L 2443.941406 3004.578125 L 2481.710938 3004.578125 L 2481.710938 3010.351562 "/>
</svg>
